# Blender v3.0.0 OBJ File: '2or.blend'
# www.blender.org
mtllib 2or.mtl
o Cube
v 1.000000 0.500000 0.200000
v 1.000000 0.500000 -0.200000
v -1.000000 0.500000 0.200000
v -1.000000 0.500000 -0.200000
v 1.000000 0.000000 -0.200000
v 0.000000 -0.800000 -0.200000
v 0.000000 -0.800000 0.200000
v 1.000000 0.000000 0.200000
v -1.000000 0.000000 -0.200000
v 0.800000 -0.380000 0.200000
v 0.400000 -0.700000 0.200000
v 0.400000 -0.700000 -0.200000
v 0.800000 -0.380000 -0.200000
v -1.000000 0.000000 0.200000
v -0.400000 -0.700000 0.200000
v -0.800000 -0.380000 0.200000
v -0.800000 -0.380000 -0.200000
v -0.400000 -0.700000 -0.200000
v -0.080000 -0.500000 -0.080000
v -0.080000 -0.500000 0.080000
v 0.080000 -0.500000 -0.080000
v 0.080000 -0.500000 0.080000
v -0.080000 -1.000000 -0.080000
v -0.080000 -1.000000 0.080000
v 0.080000 -1.000000 -0.080000
v 0.080000 -1.000000 0.080000
v 0.420000 1.000000 -0.080000
v 0.420000 1.000000 0.080000
v 0.580000 1.000000 -0.080000
v 0.580000 1.000000 0.080000
v 0.420000 0.321792 -0.080000
v 0.420000 0.321791 0.080000
v 0.580000 0.321792 -0.080000
v 0.580000 0.321791 0.080000
v -0.580000 1.000000 -0.080000
v -0.580000 1.000000 0.080000
v -0.420000 1.000000 -0.080000
v -0.420000 1.000000 0.080000
v -0.580000 0.321792 -0.080000
v -0.580000 0.321791 0.080000
v -0.420000 0.321792 -0.080000
v -0.420000 0.321791 0.080000
v 0.650000 0.410000 -0.200000
v 0.240000 0.340000 -0.200000
v 0.000000 0.328219 -0.200000
v -0.240000 0.340000 -0.200000
v -0.650000 0.410000 -0.200000
v -0.650000 0.410000 0.200000
v -0.240000 0.340000 0.200000
v 0.000000 0.329970 0.200000
v 0.240000 0.340000 0.200000
v 0.650000 0.410000 0.200000
vt 0.001561 0.455385
vt 0.320476 0.452725
vt 0.319790 0.661850
vt 0.000079 0.659208
vt 0.257561 0.458872
vt 0.197858 0.458120
vt 0.198925 0.660084
vt 0.260255 0.660272
vt 0.001599 0.475669
vt 0.002137 0.345696
vt 0.031482 0.241341
vt 0.086440 0.146425
vt 0.170481 0.121270
vt 0.250886 0.148868
vt 0.295565 0.246175
vt 0.318974 0.344290
vt 0.318121 0.475557
vt 0.250159 0.477223
vt 0.198924 0.475571
vt 0.171108 0.476402
vt 0.110374 0.476222
vt 0.053422 0.480717
vt 0.000428 0.660873
vt 0.319688 0.660698
vt 0.319522 0.458314
vt 0.001053 0.454740
vt 0.000150 0.455460
vt -0.000064 0.660103
vt 0.317850 0.659798
vt 0.319998 0.456357
vt 0.001077 0.458617
vt 0.320133 0.458721
vt 0.317461 0.659579
vt -0.000105 0.661930
vt 0.000015 0.457881
vt 0.318233 0.458944
vt 0.318805 0.659163
vt 0.001853 0.659239
vt 0.322377 0.662734
vt 0.000650 0.657891
vt 0.000843 0.458359
vt 0.318357 0.456623
vt -0.000734 0.457864
vt 0.318738 0.456864
vt 0.318738 0.658672
vt -0.000159 0.661981
vt -0.000249 0.348906
vt 0.029763 0.245322
vt 0.083767 0.149051
vt 0.165118 0.118899
vt 0.249389 0.146802
vt 0.295998 0.246866
vt 0.316413 0.331681
vt 0.318369 0.473247
vt 0.269299 0.473929
vt 0.226553 0.476531
vt 0.152446 0.478594
vt 0.096898 0.478622
vt 0.056418 0.474980
vt 0.001102 0.476015
vt 0.000623 0.658887
vt 0.001069 0.458234
vt 0.319613 0.460115
vt 0.318554 0.661368
vt 0.269380 0.738054
vt 0.519380 0.738054
vt 0.519380 0.988054
vt 0.269380 0.988054
vt 0.297339 0.706890
vt 0.547338 0.706890
vt 0.547338 0.956890
vt 0.297339 0.956890
vt 0.269380 0.716730
vt 0.519380 0.716730
vt 0.519380 0.966730
vt 0.269380 0.966730
vt 0.241422 0.744142
vt 0.491422 0.744142
vt 0.491422 0.994142
vt 0.241422 0.994142
vt 0.252365 0.705015
vt 0.502365 0.705015
vt 0.502365 0.955015
vt 0.252365 0.955015
vt 0.305035 0.710872
vt 0.555035 0.710872
vt 0.555035 0.960872
vt 0.305035 0.960872
vt 0.287471 0.722943
vt 0.537471 0.722943
vt 0.537471 0.972943
vt 0.287471 0.972943
vt 0.259117 0.714915
vt 0.509117 0.714915
vt 0.509117 0.964915
vt 0.259117 0.964915
vt 0.375000 0.500000
vt 0.625000 0.500000
vt 0.625000 0.750000
vt 0.375000 0.750000
vt 0.625000 1.000000
vt 0.375000 1.000000
vt 0.256910 0.711537
vt 0.506910 0.711537
vt 0.506910 0.961537
vt 0.256910 0.961537
vt 0.301928 0.705015
vt 0.551928 0.705015
vt 0.551928 0.955015
vt 0.301928 0.955015
vt 0.291126 0.720481
vt 0.541126 0.720481
vt 0.541126 0.970481
vt 0.291126 0.970481
vt 0.359468 0.627813
vt 0.609468 0.627813
vt 0.609468 0.877813
vt 0.359468 0.877813
vt 0.375000 0.500000
vt 0.625000 0.500000
vt 0.625000 0.750000
vt 0.375000 0.750000
vt 0.275593 0.750000
vt 0.525593 0.750000
vt 0.525593 1.000000
vt 0.275593 1.000000
vt 0.272936 0.695265
vt 0.522936 0.695265
vt 0.522936 0.945265
vt 0.272936 0.945265
vt 0.301928 0.705015
vt 0.551928 0.705015
vt 0.551928 0.955015
vt 0.301928 0.955015
vt 0.093288 0.660735
vt 0.150916 0.662380
vt 0.148563 0.458092
vt 0.092198 0.458959
vt 0.318253 0.659052
vt 0.318738 0.459906
vt 0.045655 0.659372
vt 0.037868 0.457821
vt 0.000734 0.458603
vt 0.000045 0.658718
vn -0.8849 -0.4657 0.0000
vn 0.1683 0.9857 0.0000
vn 0.0000 0.0000 -1.0000
vn 1.0000 0.0000 0.0000
vn -0.6247 -0.7809 0.0000
vn 0.2425 -0.9701 0.0000
vn 0.6247 -0.7809 0.0000
vn 0.8849 -0.4657 0.0000
vn -1.0000 0.0000 0.0000
vn -0.0000 0.0000 1.0000
vn -0.2425 -0.9701 0.0000
vn 0.0000 1.0000 0.0000
vn 0.0000 -1.0000 -0.0000
vn -0.0454 0.9990 -0.0022
vn 0.2490 0.9685 0.0000
vn 0.0454 0.9990 -0.0022
vn -0.1683 0.9857 0.0000
vn -0.2490 0.9685 0.0000
usemtl Material
s off
f 17/1/1 16/2/1 14/3/1 9/4/1
f 48/5/2 49/6/2 46/7/2 47/8/2
f 2/9/3 5/10/3 13/11/3 12/12/3 6/13/3 18/14/3 17/15/3 9/16/3 4/17/3 47/18/3 46/19/3 45/20/3 44/21/3 43/22/3
f 2/23/4 1/24/4 8/25/4 5/26/4
f 17/27/5 18/28/5 15/29/5 16/30/5
f 12/31/6 11/32/6 7/33/6 6/34/6
f 13/35/7 10/36/7 11/37/7 12/38/7
f 10/39/8 13/40/8 5/41/8 8/42/8
f 9/43/9 14/44/9 3/45/9 4/46/9
f 14/47/10 16/48/10 15/49/10 7/50/10 11/51/10 10/52/10 8/53/10 1/54/10 52/55/10 51/56/10 50/57/10 49/58/10 48/59/10 3/60/10
f 18/61/11 6/62/11 7/63/11 15/64/11
f 19/65/12 20/66/12 22/67/12 21/68/12
f 21/69/4 22/70/4 26/71/4 25/72/4
f 25/73/13 26/74/13 24/75/13 23/76/13
f 23/77/9 24/78/9 20/79/9 19/80/9
f 21/81/3 25/82/3 23/83/3 19/84/3
f 26/85/10 22/86/10 20/87/10 24/88/10
f 27/89/12 28/90/12 30/91/12 29/92/12
f 29/93/4 30/94/4 34/95/4 33/96/4
f 33/97/13 34/98/13 32/99/13 31/100/13
f 31/100/9 32/99/9 28/101/9 27/102/9
f 29/103/3 33/104/3 31/105/3 27/106/3
f 34/107/10 30/108/10 28/109/10 32/110/10
f 35/111/12 36/112/12 38/113/12 37/114/12
f 37/115/4 38/116/4 42/117/4 41/118/4
f 41/119/13 42/120/13 40/121/13 39/122/13
f 39/123/9 40/124/9 36/125/9 35/126/9
f 37/127/3 41/128/3 39/129/3 35/130/3
f 42/131/10 38/132/10 36/133/10 40/134/10
f 44/135/14 45/136/14 50/137/14 51/138/14
f 48/5/15 47/8/15 4/139/15 3/140/15
f 49/6/16 50/137/16 45/136/16 46/7/16
f 43/141/17 44/135/17 51/138/17 52/142/17
f 1/143/18 2/144/18 43/141/18 52/142/18
