# Blender v3.0.0 OBJ File: 'gen.blend'
# www.blender.org
mtllib ind.mtl
o Cube
v -0.200000 0.200000 -0.200000
v -0.200000 0.200000 0.200000
v 0.200000 0.200000 -0.200000
v 0.200000 0.200000 0.200000
v -0.200000 -0.200000 -0.200000
v -0.200000 -0.200000 0.200000
v 0.200000 -0.200000 -0.200000
v 0.200000 -0.200000 0.200000
v -0.080000 -0.200000 -0.080000
v -0.080000 -0.200000 0.080000
v 0.080000 -0.200000 -0.080000
v 0.080000 -0.200000 0.080000
v -0.080000 -0.500000 -0.080000
v -0.080000 -0.500000 0.080000
v 0.080000 -0.500000 -0.080000
v 0.080000 -0.500000 0.080000
vt 0.939195 0.455236
vt 0.976038 0.464585
vt 0.977875 0.353549
vt 0.940495 0.354907
vt 0.974797 0.457831
vt 0.936126 0.460359
vt 0.976619 0.352650
vt 0.933447 0.352670
vt 0.975313 0.459014
vt 0.936512 0.458367
vt 0.979803 0.458375
vt 0.981959 0.347405
vt 0.974797 0.459664
vt 0.932843 0.458957
vt 0.934499 0.357727
vt 0.976619 0.354483
vt 0.375000 0.500415
vt 0.625000 0.500415
vt 0.625000 0.750415
vt 0.375000 0.750415
vt 0.625000 0.500000
vt 0.375000 0.500000
vt 0.625000 0.750000
vt 0.375000 0.750000
vt 0.625000 0.493766
vt 0.375000 0.493766
vt 0.629543 0.500000
vt 0.629543 0.750000
vt 0.378172 0.500000
vt 0.378172 0.750000
vn 0.0000 1.0000 0.0000
vn 1.0000 0.0000 0.0000
vn 0.0000 -1.0000 0.0000
vn -1.0000 0.0000 0.0000
vn 0.0000 0.0000 -1.0000
vn 0.0000 0.0000 1.0000
usemtl Material
s off
f 1/1/1 2/2/1 4/3/1 3/4/1
f 3/4/2 4/3/2 8/5/2 7/6/2
f 7/6/3 8/5/3 6/7/3 5/8/3
f 5/8/4 6/7/4 2/9/4 1/10/4
f 3/11/5 7/6/5 5/8/5 1/12/5
f 8/13/6 4/14/6 2/15/6 6/16/6
f 9/17/1 10/18/1 12/19/1 11/20/1
f 11/20/2 12/19/2 16/21/2 15/22/2
f 15/22/3 16/21/3 14/23/3 13/24/3
f 13/24/4 14/23/4 10/25/4 9/26/4
f 11/27/5 15/22/5 13/24/5 9/28/5
f 16/21/6 12/29/6 10/30/6 14/23/6
