# Blender v3.0.0 OBJ File: 'split.blend'
# www.blender.org
mtllib split.mtl
o Cube
v -0.500000 0.080000 -0.080000
v -0.500000 0.080000 0.080000
v 0.500000 0.080000 -0.080000
v 0.500000 0.080000 0.080000
v -0.500000 -0.080000 -0.080000
v -0.500000 -0.080000 0.080000
v 0.500000 -0.080000 -0.080000
v 0.500000 -0.080000 0.080000
v -0.080000 0.500000 -0.080000
v -0.080000 0.500000 0.080000
v 0.080000 0.500000 -0.080000
v 0.080000 0.500000 0.080000
v -0.080000 -0.500000 -0.080000
v -0.080000 -0.500000 0.080000
v 0.080000 -0.500000 -0.080000
v 0.080000 -0.500000 0.080000
vt 0.375000 0.497505
vt 0.625000 0.497505
vt 0.625000 0.747505
vt 0.375000 0.747505
vt 0.625000 0.500000
vt 0.375000 0.500000
vt 0.625000 0.750000
vt 0.375000 0.750000
vt 0.373096 0.494063
vt 0.623096 0.494063
vt 0.623096 0.744063
vt 0.373096 0.744063
vt 0.369982 0.498823
vt 0.619982 0.498823
vt 0.619982 0.748823
vt 0.369982 0.748823
vt 0.375086 0.500000
vt 0.375086 0.750000
vt 0.375000 0.497505
vt 0.625000 0.497505
vt 0.625000 0.747505
vt 0.375000 0.747505
vt 0.625000 0.500000
vt 0.375000 0.500000
vt 0.625000 0.750000
vt 0.375000 0.750000
vt 0.625000 0.496676
vt 0.375000 0.496676
vt 0.624914 0.500000
vt 0.624914 0.750000
vt 0.375086 0.500000
vt 0.375086 0.750000
vn 0.0000 1.0000 0.0000
vn 1.0000 -0.0000 0.0000
vn 0.0000 -1.0000 0.0000
vn -1.0000 -0.0000 -0.0000
vn 0.0000 0.0000 -1.0000
vn 0.0000 0.0000 1.0000
usemtl Material
s off
f 1/1/1 2/2/1 4/3/1 3/4/1
f 3/4/2 4/3/2 8/5/2 7/6/2
f 7/6/3 8/5/3 6/7/3 5/8/3
f 5/9/4 6/10/4 2/11/4 1/12/4
f 3/13/5 7/14/5 5/15/5 1/16/5
f 8/5/6 4/17/6 2/18/6 6/7/6
f 9/19/1 10/20/1 12/21/1 11/22/1
f 11/22/2 12/21/2 16/23/2 15/24/2
f 15/24/3 16/23/3 14/25/3 13/26/3
f 13/26/4 14/25/4 10/27/4 9/28/4
f 11/29/5 15/24/5 13/26/5 9/30/5
f 16/23/6 12/31/6 10/32/6 14/25/6
